        <svg id="logo" width="100%" height="100%" viewBox="0 0 551 551" version="1.1" xmlns="http://www.w3.org/2000/svg" xmlns:xlink="http://www.w3.org/1999/xlink">
    <path d="M0,274.048C0.045,265.431 0.486,256.908 1.306,248.495L28.449,248.495C27.489,257.366 26.996,266.376 26.996,275.5C26.996,284.624 27.489,293.634 28.449,302.505L1.306,302.505C0.486,294.092 0.045,285.569 0,276.952L0,274.048ZM28.449,248.495C40.965,132.895 132.893,40.966 248.492,28.45C248.432,37.734 247.8,46.884 246.629,55.865C147.447,68.797 68.796,147.449 55.864,246.632C46.883,247.803 37.734,248.435 28.449,248.495ZM248.492,28.45L248.492,1.306C256.904,0.486 265.428,0.045 274.044,-0L276.949,-0C285.565,0.045 294.088,0.486 302.501,1.306L302.501,28.45C293.63,27.489 284.62,26.997 275.496,26.997C266.372,26.997 257.362,27.489 248.492,28.45ZM302.501,28.45C418.099,40.966 510.027,132.895 522.543,248.495C513.259,248.435 504.11,247.803 495.129,246.632C482.196,147.449 403.545,68.797 304.364,55.865C303.193,46.884 302.561,37.734 302.501,28.45ZM522.543,248.495L549.687,248.495C550.507,256.908 550.948,265.431 550.992,274.048L550.992,276.952C550.948,285.569 550.507,294.092 549.687,302.505L522.543,302.505C523.503,293.634 523.996,284.624 523.996,275.5C523.996,266.376 523.503,257.366 522.543,248.495ZM522.543,302.505C510.027,418.105 418.099,510.034 302.501,522.55C302.561,513.266 303.193,504.116 304.364,495.135C403.545,482.203 482.196,403.551 495.129,304.368C504.11,303.197 513.259,302.565 522.543,302.505ZM302.501,522.55L302.501,549.694C294.088,550.514 285.565,550.955 276.949,551L274.044,551C265.428,550.955 256.904,550.514 248.492,549.694L248.492,522.55C257.362,523.511 266.372,524.003 275.496,524.003C284.62,524.003 293.63,523.511 302.501,522.55ZM248.492,522.55C132.893,510.034 40.965,418.105 28.449,302.505C37.734,302.565 46.883,303.197 55.864,304.368C68.796,403.551 147.447,482.203 246.629,495.135C247.8,504.116 248.432,513.266 248.492,522.55ZM55.864,304.368C54.693,295.387 54.061,286.237 54.001,276.953C169.599,289.469 261.527,381.399 274.043,496.998C264.759,496.939 255.61,496.306 246.629,495.135C233.696,395.952 155.045,317.301 55.864,304.368ZM304.364,495.135C295.383,496.306 286.234,496.939 276.949,496.998C289.465,381.399 381.393,289.469 496.992,276.953C496.932,286.237 496.3,295.387 495.129,304.368C395.947,317.301 317.296,395.952 304.364,495.135ZM495.129,246.632C496.3,255.613 496.932,264.763 496.992,274.047C381.393,261.531 289.465,169.601 276.949,54.002C286.234,54.061 295.383,54.694 304.364,55.865C317.296,155.048 395.947,233.699 495.129,246.632ZM276.949,54.002C276.465,53.999 275.981,53.997 275.496,53.997L276.949,53.997L276.949,54.002ZM275.496,53.997C275.011,53.997 274.527,53.999 274.043,54.002L274.044,53.997L275.496,53.997ZM274.043,54.002C261.527,169.601 169.599,261.531 54.001,274.047C54.061,264.763 54.693,255.613 55.864,246.632C155.045,233.699 233.696,155.048 246.629,55.865C255.61,54.694 264.759,54.061 274.043,54.002Z"/>
</svg>
